<svg xmlns="http://www.w3.org/2000/svg" width="40" height="40" viewBox="0 0 40 40" fill="none">
  <rect width="40" height="40" rx="12" fill="url(#g)"/>
  <path d="M12 15c0-3 2.4-5 5.6-5 2.7 0 4.6 1.4 5.3 3.4h.5c3 0 5.6 2.1 5.6 5.4 0 3.8-2.9 6.8-7.3 6.8-3 0-5.5-1.6-6.5-4.1h-1.4V29H12V15Zm5.6-2.5c-2.3 0-3.8 1.4-3.8 3.4v4.3h1.3l.2.6c.7 2.1 2.7 3.4 5.1 3.4 3.1 0 5.3-2.1 5.3-4.9 0-2.2-1.6-3.7-3.9-3.7h-2.1l-.2-.6c-.5-1.5-1.8-2.5-3.9-2.5Z" fill="#fff"/>
  <defs>
    <linearGradient id="g" x1="6" y1="6" x2="34" y2="34" gradientUnits="userSpaceOnUse">
      <stop stop-color="#ff3d9e"/>
      <stop offset="1" stop-color="#5c30ff"/>
    </linearGradient>
  </defs>
</svg>
